<svg width="800" height="600" viewBox="0 0 800 600" xmlns="http://www.w3.org/2000/svg">
  <!-- Background -->
  <rect width="800" height="600" fill="#f0f0f0"/>
  
  <!-- Weather Dashboard Illustration -->
  <g transform="translate(100, 50)">
    <!-- Background circle -->
    <circle cx="300" cy="250" r="200" fill="#4a6cf7" opacity="0.1"/>
    
    <!-- Weather dashboard -->
    <g transform="translate(100, 100)">
      <!-- Dashboard background -->
      <rect x="0" y="0" width="400" height="300" rx="10" fill="white" stroke="#4a6cf7" stroke-width="2"/>
      
      <!-- Header -->
      <rect x="0" y="0" width="400" height="50" rx="10" fill="#4a6cf7"/>
      <text x="20" y="30" font-family="Arial, sans-serif" font-size="18" font-weight="bold" fill="white">Weather Dashboard</text>
      
      <!-- Search bar -->
      <rect x="250" y="15" width="130" height="25" rx="5" fill="white"/>
      <text x="260" y="32" font-family="Arial, sans-serif" font-size="12" fill="#6c757d">Search city...</text>
      
      <!-- Main weather display -->
      <g transform="translate(20, 70)">
        <!-- City name -->
        <text x="0" y="0" font-family="Arial, sans-serif" font-size="24" font-weight="bold" fill="#2b3940">Jakarta</text>
        <text x="0" y="25" font-family="Arial, sans-serif" font-size="14" fill="#6c757d">Monday, 10:30 AM</text>
        
        <!-- Current weather -->
        <g transform="translate(0, 50)">
          <!-- Sun icon -->
          <circle cx="30" cy="30" r="25" fill="#ffc107"/>
          <g transform="translate(30, 30)">
            <line x1="0" y1="-35" x2="0" y2="-28" stroke="#ffc107" stroke-width="2"/>
            <line x1="0" y1="35" x2="0" y2="28" stroke="#ffc107" stroke-width="2"/>
            <line x1="-35" y1="0" x2="-28" y2="0" stroke="#ffc107" stroke-width="2"/>
            <line x1="35" y1="0" x2="28" y2="0" stroke="#ffc107" stroke-width="2"/>
            <line x1="-25" y1="-25" x2="-20" y2="-20" stroke="#ffc107" stroke-width="2"/>
            <line x1="25" y1="25" x2="20" y2="20" stroke="#ffc107" stroke-width="2"/>
            <line x1="-25" y1="25" x2="-20" y2="20" stroke="#ffc107" stroke-width="2"/>
            <line x1="25" y1="-25" x2="20" y2="-20" stroke="#ffc107" stroke-width="2"/>
          </g>
          
          <!-- Temperature -->
          <text x="80" y="20" font-family="Arial, sans-serif" font-size="36" font-weight="bold" fill="#2b3940">32°C</text>
          <text x="80" y="45" font-family="Arial, sans-serif" font-size="18" fill="#6c757d">Sunny</text>
        </g>
        
        <!-- Weather details -->
        <g transform="translate(0, 120)">
          <rect x="0" y="0" width="360" height="80" rx="5" fill="#f8f9fa"/>
          
          <!-- Humidity -->
          <g transform="translate(30, 40)">
            <text x="0" y="0" font-family="Arial, sans-serif" font-size="14" text-anchor="middle" fill="#6c757d">Humidity</text>
            <text x="0" y="25" font-family="Arial, sans-serif" font-size="16" font-weight="bold" text-anchor="middle" fill="#2b3940">65%</text>
          </g>
          
          <!-- Wind -->
          <g transform="translate(120, 40)">
            <text x="0" y="0" font-family="Arial, sans-serif" font-size="14" text-anchor="middle" fill="#6c757d">Wind</text>
            <text x="0" y="25" font-family="Arial, sans-serif" font-size="16" font-weight="bold" text-anchor="middle" fill="#2b3940">5 km/h</text>
          </g>
          
          <!-- Pressure -->
          <g transform="translate(210, 40)">
            <text x="0" y="0" font-family="Arial, sans-serif" font-size="14" text-anchor="middle" fill="#6c757d">Pressure</text>
            <text x="0" y="25" font-family="Arial, sans-serif" font-size="16" font-weight="bold" text-anchor="middle" fill="#2b3940">1015 hPa</text>
          </g>
          
          <!-- UV Index -->
          <g transform="translate(300, 40)">
            <text x="0" y="0" font-family="Arial, sans-serif" font-size="14" text-anchor="middle" fill="#6c757d">UV Index</text>
            <text x="0" y="25" font-family="Arial, sans-serif" font-size="16" font-weight="bold" text-anchor="middle" fill="#2b3940">High</text>
          </g>
        </g>
      </g>
    </g>
    
    <!-- Decorative elements -->
    <g>
      <circle cx="50" cy="350" r="30" fill="#4a6cf7" opacity="0.2"/>
      <circle cx="550" cy="150" r="40" fill="#4a6cf7" opacity="0.2"/>
      <circle cx="500" cy="400" r="25" fill="#4a6cf7" opacity="0.3"/>
      
      <!-- Cloud decorations -->
      <g transform="translate(450, 100)">
        <circle cx="0" cy="0" r="15" fill="white"/>
        <circle cx="15" cy="0" r="15" fill="white"/>
        <circle cx="30" cy="0" r="15" fill="white"/>
        <circle cx="7" cy="-10" r="15" fill="white"/>
        <circle cx="22" cy="-10" r="15" fill="white"/>
      </g>
      
      <g transform="translate(80, 150)">
        <circle cx="0" cy="0" r="10" fill="white"/>
        <circle cx="10" cy="0" r="10" fill="white"/>
        <circle cx="20" cy="0" r="10" fill="white"/>
        <circle cx="5" cy="-7" r="10" fill="white"/>
        <circle cx="15" cy="-7" r="10" fill="white"/>
      </g>
    </g>
    
    <!-- Text: Weather Dashboard -->
    <text x="300" y="450" font-family="Arial, sans-serif" font-size="40" font-weight="bold" text-anchor="middle" fill="#2b3940">Weather Dashboard</text>
  </g>
</svg>